<svg width="23" height="25" viewBox="0 0 23 25" fill="none" xmlns="http://www.w3.org/2000/svg">
<path d="M13.396 12.5L22.9307 0.502301C23.0905 0.302914 22.9561 0 22.7091 0H19.8106C19.6399 0 19.4764 0.0805213 19.3638 0.218558L11.5 10.115L3.63618 0.218558C3.52721 0.0805213 3.36376 0 3.18941 0H0.290871C0.0438782 0 -0.0905154 0.302914 0.0693037 0.502301L9.60397 12.5L0.0693037 24.4977C0.0335028 24.5421 0.0105351 24.5965 0.00312665 24.6543C-0.00428181 24.7121 0.00418011 24.771 0.0275087 24.8238C0.0508372 24.8767 0.0880525 24.9214 0.134735 24.9527C0.181418 24.9839 0.235608 25.0003 0.290871 25H3.18941C3.36012 25 3.52358 24.9195 3.63618 24.7814L11.5 14.885L19.3638 24.7814C19.4728 24.9195 19.6362 25 19.8106 25H22.7091C22.9561 25 23.0905 24.6971 22.9307 24.4977L13.396 12.5Z" fill="black"/>
</svg>
