<svg width="30" height="30" viewBox="0 0 30 30" fill="none" xmlns="http://www.w3.org/2000/svg">
<path d="M25.3089 1.4908L25.5883 1.21142C25.7985 1.00127 26.0482 0.834588 26.3228 0.7209C26.5975 0.607211 26.8919 0.548741 27.1892 0.548828C27.4865 0.548915 27.7809 0.607558 28.0555 0.721407C28.3301 0.835256 28.5797 1.00208 28.7898 1.21236C29 1.42264 29.1667 1.67225 29.2803 1.94695C29.394 2.22165 29.4525 2.51605 29.4524 2.81334C29.4523 3.11063 29.3937 3.40499 29.2798 3.67962C29.166 3.95425 28.9992 4.20377 28.7889 4.41392L28.5095 4.69142C28.9874 5.22742 29.2422 5.92591 29.2216 6.64373C29.2011 7.36154 28.9067 8.0443 28.3989 8.55205L9.10139 27.8514C8.98075 27.9714 8.82973 28.0563 8.66451 28.097L1.16452 29.972C1.00757 30.0111 0.843173 30.0089 0.687317 29.9657C0.531462 29.9224 0.389446 29.8396 0.275076 29.7252C0.160705 29.6109 0.0778698 29.4689 0.0346222 29.313C-0.00862548 29.1571 -0.0108143 28.9928 0.0282683 28.8358L1.90327 21.3358C1.94429 21.1713 2.02918 21.0209 2.14889 20.9008L20.2276 2.82205C20.0468 2.69479 19.8269 2.63554 19.6066 2.65475C19.3863 2.67396 19.1799 2.77041 19.0239 2.92705L12.8514 9.10143C12.7642 9.18859 12.6607 9.25773 12.5469 9.30491C12.433 9.35208 12.3109 9.37636 12.1876 9.37636C12.0644 9.37636 11.9423 9.35208 11.8284 9.30491C11.7145 9.25773 11.6111 9.18859 11.5239 9.10143C11.4367 9.01426 11.3676 8.91078 11.3204 8.79689C11.2732 8.68301 11.249 8.56094 11.249 8.43767C11.249 8.31441 11.2732 8.19234 11.3204 8.07846C11.3676 7.96457 11.4367 7.86109 11.5239 7.77392L17.7001 1.60142C18.2082 1.09333 18.8915 0.798964 19.6098 0.778741C20.328 0.758518 21.0268 1.01397 21.5626 1.49267C22.0778 1.03225 22.7445 0.777572 23.4354 0.777226C24.1263 0.776881 24.7932 1.03089 25.3089 1.4908ZM24.1014 2.92705C23.9256 2.7513 23.6872 2.65256 23.4386 2.65256C23.19 2.65256 22.9516 2.7513 22.7758 2.92705L3.65639 22.0427L2.22389 27.7745L7.95577 26.3421L27.0751 7.22642C27.1624 7.13934 27.2317 7.03588 27.279 6.92199C27.3262 6.80809 27.3506 6.68599 27.3506 6.56267C27.3506 6.43936 27.3262 6.31726 27.279 6.20336C27.2317 6.08946 27.1624 5.98601 27.0751 5.89892L24.1033 2.92705H24.1014Z" fill="black"/>
</svg>
