<svg width="41" height="45" viewBox="0 0 41 45" fill="none" xmlns="http://www.w3.org/2000/svg">
<path d="M37.6504 0.450195H32.7504C32.1006 0.450195 31.4774 0.708319 31.018 1.16778C30.5585 1.62725 30.3004 2.25041 30.3004 2.9002V44.5306H40.1004V2.9002C40.1004 2.25041 39.8423 1.62725 39.3828 1.16778C38.9233 0.708319 38.3002 0.450195 37.6504 0.450195ZM22.9504 15.1502H18.0504C17.4006 15.1502 16.7774 15.4083 16.318 15.8678C15.8585 16.3272 15.6004 16.9504 15.6004 17.6002V44.5306H25.4004V17.6002C25.4004 16.9504 25.1423 16.3272 24.6828 15.8678C24.2233 15.4083 23.6002 15.1502 22.9504 15.1502ZM8.25039 29.8502H3.35039C2.70061 29.8502 2.07744 30.1083 1.61798 30.5678C1.15851 31.0272 0.900391 31.6504 0.900391 32.3002V44.5306H10.7004V32.3002C10.7004 31.6504 10.4423 31.0272 9.9828 30.5678C9.52334 30.1083 8.90017 29.8502 8.25039 29.8502Z" fill="url(#paint0_linear_73_2845)"/>
<defs>
<linearGradient id="paint0_linear_73_2845" x1="20.5004" y1="0.450195" x2="20.5004" y2="44.5306" gradientUnits="userSpaceOnUse">
<stop stop-color="#1085A3"/>
<stop offset="1" stop-color="#1A66CA" stop-opacity="0.72"/>
</linearGradient>
</defs>
</svg>
