<svg width="39" height="39" viewBox="0 0 39 39" fill="none" xmlns="http://www.w3.org/2000/svg">
<mask id="path-1-inside-1_73_2847" fill="white">
<path d="M38.7808 36.7933L28.1608 26.1733C30.7128 23.1095 31.9854 19.1798 31.7139 15.2016C31.4423 11.2234 29.6475 7.50306 26.7028 4.81449C23.7581 2.12592 19.8902 0.676119 15.9038 0.766698C11.9174 0.857277 8.11938 2.48126 5.29983 5.30081C2.48028 8.12035 0.8563 11.9184 0.765721 15.9048C0.675142 19.8912 2.12494 23.7591 4.81351 26.7038C7.50209 29.6485 11.2224 31.4433 15.2006 31.7149C19.1788 31.9864 23.1085 30.7138 26.1723 28.1617L36.7923 38.7817L38.7808 36.7933ZM3.62451 16.2817C3.62451 13.7786 4.36678 11.3316 5.75747 9.2503C7.14816 7.16899 9.12479 5.5468 11.4374 4.58888C13.75 3.63096 16.2948 3.38033 18.7499 3.86867C21.2049 4.35701 23.4601 5.5624 25.2301 7.33241C27.0001 9.10242 28.2055 11.3575 28.6938 13.8126C29.1822 16.2677 28.9315 18.8124 27.9736 21.1251C27.0157 23.4377 25.3935 25.4143 23.3122 26.805C21.2309 28.1957 18.7839 28.938 16.2808 28.938C12.9253 28.9343 9.70825 27.5996 7.33555 25.2269C4.96285 22.8542 3.62823 19.6372 3.62451 16.2817Z"/>
</mask>
<path d="M38.7808 36.7933L28.1608 26.1733C30.7128 23.1095 31.9854 19.1798 31.7139 15.2016C31.4423 11.2234 29.6475 7.50306 26.7028 4.81449C23.7581 2.12592 19.8902 0.676119 15.9038 0.766698C11.9174 0.857277 8.11938 2.48126 5.29983 5.30081C2.48028 8.12035 0.8563 11.9184 0.765721 15.9048C0.675142 19.8912 2.12494 23.7591 4.81351 26.7038C7.50209 29.6485 11.2224 31.4433 15.2006 31.7149C19.1788 31.9864 23.1085 30.7138 26.1723 28.1617L36.7923 38.7817L38.7808 36.7933ZM3.62451 16.2817C3.62451 13.7786 4.36678 11.3316 5.75747 9.2503C7.14816 7.16899 9.12479 5.5468 11.4374 4.58888C13.75 3.63096 16.2948 3.38033 18.7499 3.86867C21.2049 4.35701 23.4601 5.5624 25.2301 7.33241C27.0001 9.10242 28.2055 11.3575 28.6938 13.8126C29.1822 16.2677 28.9315 18.8124 27.9736 21.1251C27.0157 23.4377 25.3935 25.4143 23.3122 26.805C21.2309 28.1957 18.7839 28.938 16.2808 28.938C12.9253 28.9343 9.70825 27.5996 7.33555 25.2269C4.96285 22.8542 3.62823 19.6372 3.62451 16.2817Z" fill="url(#paint0_linear_73_2847)"/>
<path d="M38.7808 36.7933L44.4376 42.4501L50.0945 36.7933L44.4376 31.1364L38.7808 36.7933ZM28.1608 26.1733L22.0139 21.0531L17.3391 26.6653L22.5039 31.8302L28.1608 26.1733ZM26.1723 28.1617L31.8292 22.5049L26.6644 17.3401L21.0521 22.0149L26.1723 28.1617ZM36.7923 38.7817L31.1355 44.4386L36.7923 50.0954L42.4492 44.4386L36.7923 38.7817ZM3.62451 16.2817H-4.3755L-4.37549 16.2906L3.62451 16.2817ZM16.2808 28.938L16.2719 36.938H16.2808V28.938ZM44.4376 31.1364L33.8176 20.5164L22.5039 31.8302L33.1239 42.4502L44.4376 31.1364ZM34.3076 31.2935C38.1774 26.6478 40.1071 20.689 39.6953 14.6568L23.7324 15.7464C23.8638 17.6706 23.2483 19.5713 22.0139 21.0531L34.3076 31.2935ZM39.6953 14.6568C39.2835 8.62456 36.562 2.9833 32.0969 -1.09346L21.3087 10.7224C22.733 12.0228 23.6011 13.8223 23.7324 15.7464L39.6953 14.6568ZM32.0969 -1.09346C27.6318 -5.17022 21.7668 -7.36858 15.7221 -7.23124L16.0855 8.76463C18.0137 8.72082 19.8845 9.42205 21.3087 10.7224L32.0969 -1.09346ZM15.7221 -7.23124C9.67738 -7.09389 3.91833 -4.63141 -0.357025 -0.356049L10.9567 10.9577C12.3204 9.59392 14.1574 8.80844 16.0855 8.76463L15.7221 -7.23124ZM-0.357025 -0.356049C-4.63238 3.91931 -7.09487 9.67836 -7.23221 15.7231L8.76366 16.0865C8.80747 14.1584 9.59294 12.3214 10.9567 10.9577L-0.357025 -0.356049ZM-7.23221 15.7231C-7.36956 21.7678 -5.1712 27.6327 -1.09444 32.0979L10.7215 21.3097C9.42107 19.8854 8.71985 18.0146 8.76366 16.0865L-7.23221 15.7231ZM-1.09444 32.0979C2.98232 36.563 8.62358 39.2845 14.6558 39.6963L15.7454 23.7334C13.8213 23.6021 12.0219 22.734 10.7215 21.3097L-1.09444 32.0979ZM14.6558 39.6963C20.688 40.108 26.6468 38.1783 31.2925 34.3086L21.0521 22.0149C19.5703 23.2492 17.6696 23.8648 15.7454 23.7334L14.6558 39.6963ZM20.5155 33.8186L31.1355 44.4386L42.4492 33.1249L31.8292 22.5049L20.5155 33.8186ZM42.4492 44.4386L44.4376 42.4501L33.1239 31.1364L31.1355 33.1249L42.4492 44.4386ZM11.6245 16.2817C11.6245 15.3608 11.8976 14.4606 12.4092 13.6949L-0.894287 4.80574C-3.16402 8.20264 -4.37549 12.1963 -4.37549 16.2817H11.6245ZM12.4092 13.6949C12.9209 12.9291 13.6481 12.3323 14.4989 11.9799L8.37595 -2.80215C4.60152 -1.23873 1.37545 1.40883 -0.894287 4.80574L12.4092 13.6949ZM14.4989 11.9799C15.3497 11.6275 16.2859 11.5353 17.1891 11.715L20.3106 -3.97761C16.3037 -4.77464 12.1504 -4.36558 8.37595 -2.80215L14.4989 11.9799ZM17.1891 11.715C18.0924 11.8946 18.922 12.3381 19.5732 12.9893L30.8869 1.67556C27.9981 -1.21327 24.3175 -3.18059 20.3106 -3.97761L17.1891 11.715ZM19.5732 12.9893C20.2244 13.6405 20.6679 14.4701 20.8475 15.3733L36.5401 12.2519C35.7431 8.24497 33.7758 4.56438 30.8869 1.67556L19.5732 12.9893ZM20.8475 15.3733C21.0272 16.2766 20.935 17.2128 20.5826 18.0636L35.3646 24.1865C36.9281 20.4121 37.3371 16.2588 36.5401 12.2519L20.8475 15.3733ZM20.5826 18.0636C20.2302 18.9144 19.6334 19.6416 18.8676 20.1533L27.7568 33.4568C31.1537 31.187 33.8012 27.961 35.3646 24.1865L20.5826 18.0636ZM18.8676 20.1533C18.1019 20.6649 17.2017 20.938 16.2808 20.938V36.938C20.3662 36.938 24.3599 35.7265 27.7568 33.4568L18.8676 20.1533ZM16.2896 20.938C15.0528 20.9366 13.867 20.4447 12.9924 19.5701L1.67869 30.8838C5.54951 34.7546 10.7977 36.9319 16.2719 36.938L16.2896 20.938ZM12.9924 19.5701C12.1178 18.6955 11.6259 17.5097 11.6245 16.2729L-4.37549 16.2906C-4.36942 21.7648 -2.19213 27.013 1.67869 30.8838L12.9924 19.5701Z" fill="url(#paint1_linear_73_2847)" mask="url(#path-1-inside-1_73_2847)"/>
<defs>
<linearGradient id="paint0_linear_73_2847" x1="19.7712" y1="0.762695" x2="19.7712" y2="38.7817" gradientUnits="userSpaceOnUse">
<stop stop-color="#1085A3"/>
<stop offset="1" stop-color="#1A66CA" stop-opacity="0.72"/>
</linearGradient>
<linearGradient id="paint1_linear_73_2847" x1="19.7712" y1="0.762695" x2="19.7712" y2="38.7817" gradientUnits="userSpaceOnUse">
<stop stop-color="#1085A3"/>
<stop offset="1" stop-color="#1A66CA" stop-opacity="0.72"/>
</linearGradient>
</defs>
</svg>
