<svg width="1440" height="585" viewBox="0 0 1440 585" fill="none" xmlns="http://www.w3.org/2000/svg">
<path opacity="0.3" d="M534.11 584C541.573 578.578 552.022 561.74 534.11 537.768C532.777 530.633 526.913 514.823 514.119 508.658C512.254 506.661 509.641 498.213 514.119 480.405C517.051 471.844 519.717 454.207 506.923 452.152C509.588 446.159 512.68 432.632 503.724 426.467C505.057 416.479 502.765 398.385 482.934 405.92C481.601 407.345 478.136 409.34 474.938 405.92C461.611 400.213 433.837 393.938 429.359 414.486C418.964 426.192 402.811 452.685 421.363 465.005C426.427 470.138 430.318 480.405 405.37 480.405C401.105 468.13 386.819 445.294 363.789 452.152C347.53 460.432 315.812 468.601 319.01 435.04C324.075 426.478 331.165 406.786 319.01 396.513C320.876 387.095 320.13 369.458 302.218 374.253C301.969 372.119 303.025 364.697 308.917 351.421C321.052 346.095 311.064 344.481 310.214 348.573C309.758 349.551 309.326 350.5 308.917 351.421C305.817 352.782 301.274 354.384 294.766 356.196L255.555 267.954L208.662 209.871C206.529 209.014 201.145 204.22 196.667 191.891C187.871 180.761 172.039 168.775 179.076 209.871C182.807 221.286 181.474 242.234 146.291 234.7C147.89 211.583 139.734 170.658 94.3151 191.891C88.9842 193.889 66.6479 192.235 19.9497 169.632C17.5508 165.066 8.27515 158.16 -9.63654 167.064C-11.2358 167.921 -15.2339 168.437 -18.4324 163.643C-24.0298 154.226 -40.662 138.817 -62.4119 152.513C-68.5424 148.232 -82.2427 141.726 -88 149.945V584H534.11Z" fill="#1994B3" stroke="#47A9C2"/>
<path d="M176.618 61.9234C135.797 47.7631 122.758 88.474 121.34 110.599C104.332 92.9146 74.5668 97.3177 61.81 101.73C34.5963 122.97 36.129 157.598 54.555 172.348C78.3671 186.509 161.83 204.389 187.343 202.914C258.779 202.914 224.809 150.406 197.879 132.706C214.887 83.1444 190.792 64.867 176.618 61.9234Z" fill="url(#paint0_linear_2_10563)"/>
<path opacity="0.3" d="M479.852 537.768C451.142 561.74 467.89 578.578 479.852 584H1477V149.945C1467.77 141.726 1445.81 148.232 1435.99 152.513C1401.12 138.817 1374.47 154.226 1365.49 163.643C1360.37 168.437 1353.96 167.921 1351.4 167.064C1322.69 158.16 1307.82 165.066 1303.97 169.632C1229.12 192.235 1193.32 193.889 1184.78 191.891C1111.98 170.658 1098.9 211.583 1101.47 234.7C1045.07 242.234 1042.94 221.286 1048.92 209.871C1060.2 168.775 1034.82 180.761 1020.72 191.891C1013.54 204.22 1004.91 209.014 1001.5 209.871L955.557 234.7L913.306 285.214L897.68 344.292C846.413 335.388 837.014 343.436 838.723 348.573C850.002 363.641 851.967 371.971 851.54 374.253C822.83 369.458 821.634 387.095 824.624 396.513C805.143 406.786 816.507 426.478 824.624 435.04C829.751 468.601 778.911 460.432 752.85 452.152C715.938 445.294 693.038 468.13 686.203 480.405C646.214 480.405 652.452 470.138 660.569 465.005C690.304 452.685 664.414 426.192 647.752 414.486C640.575 393.938 596.058 400.213 574.696 405.92C569.57 409.34 564.016 407.345 561.88 405.92C530.094 398.385 526.42 416.479 528.556 426.467C514.201 432.632 519.157 446.159 523.429 452.152C502.922 454.207 507.195 471.844 511.894 480.405C519.071 498.213 514.885 506.661 511.894 508.658C491.387 514.823 481.988 530.633 479.852 537.768Z" fill="#1994B3" stroke="#47A9C2"/>
<path d="M1458 153.761C1458 163.834 1447.2 172 1437.51 172C1427.82 172 1416 169.642 1416 159.569C1416 149.496 1418.09 136 1427.78 136C1437.47 136 1458 143.689 1458 153.761Z" fill="white"/>
<rect opacity="0.5" x="-24" y="96" width="1485" height="488" fill="#E6F4F1"/>
<defs>
<linearGradient id="paint0_linear_2_10563" x1="231.199" y1="174.896" x2="47.6583" y2="133.93" gradientUnits="userSpaceOnUse">
<stop stop-color="#47A9C2" stop-opacity="0.04"/>
<stop offset="1" stop-color="#50ADC4" stop-opacity="0.28"/>
</linearGradient>
</defs>
</svg>
