<svg width="52" height="40" viewBox="0 0 52 40" fill="none" xmlns="http://www.w3.org/2000/svg">
<path d="M22.75 39.5C22.75 39.5 19.5 39.5 19.5 36.25C19.5 33 22.75 23.25 35.75 23.25C48.75 23.25 52 33 52 36.25C52 39.5 48.75 39.5 48.75 39.5H22.75ZM35.75 20C38.3359 20 40.8158 18.9728 42.6443 17.1443C44.4728 15.3158 45.5 12.8359 45.5 10.25C45.5 7.66414 44.4728 5.18419 42.6443 3.35571C40.8158 1.52723 38.3359 0.5 35.75 0.5C33.1641 0.5 30.6842 1.52723 28.8557 3.35571C27.0272 5.18419 26 7.66414 26 10.25C26 12.8359 27.0272 15.3158 28.8557 17.1443C30.6842 18.9728 33.1641 20 35.75 20Z" fill="url(#paint0_linear_73_2840)"/>
<path fill-rule="evenodd" clip-rule="evenodd" d="M16.952 39.5004C16.4702 38.4858 16.2299 37.3734 16.25 36.2504C16.25 31.8467 18.46 27.3129 22.542 24.1604C20.5045 23.5326 18.3818 23.2256 16.25 23.2504C3.25 23.2504 0 33.0004 0 36.2504C0 39.5004 3.25 39.5004 3.25 39.5004H16.952Z" fill="url(#paint1_linear_73_2840)"/>
<path d="M14.625 20C16.7799 20 18.8465 19.144 20.3702 17.6202C21.894 16.0965 22.75 14.0299 22.75 11.875C22.75 9.72012 21.894 7.65349 20.3702 6.12976C18.8465 4.60602 16.7799 3.75 14.625 3.75C12.4701 3.75 10.4035 4.60602 8.87976 6.12976C7.35602 7.65349 6.5 9.72012 6.5 11.875C6.5 14.0299 7.35602 16.0965 8.87976 17.6202C10.4035 19.144 12.4701 20 14.625 20Z" fill="url(#paint2_linear_73_2840)"/>
<defs>
<linearGradient id="paint0_linear_73_2840" x1="35.75" y1="0.5" x2="35.75" y2="39.5" gradientUnits="userSpaceOnUse">
<stop stop-color="#1085A3"/>
<stop offset="1" stop-color="#1A66CA" stop-opacity="0.72"/>
</linearGradient>
<linearGradient id="paint1_linear_73_2840" x1="11.271" y1="23.249" x2="11.271" y2="39.5004" gradientUnits="userSpaceOnUse">
<stop stop-color="#1085A3"/>
<stop offset="1" stop-color="#1A66CA" stop-opacity="0.72"/>
</linearGradient>
<linearGradient id="paint2_linear_73_2840" x1="14.625" y1="3.75" x2="14.625" y2="20" gradientUnits="userSpaceOnUse">
<stop stop-color="#1085A3"/>
<stop offset="1" stop-color="#1A66CA" stop-opacity="0.72"/>
</linearGradient>
</defs>
</svg>
